<svg width="34" height="45" viewBox="0 0 316 423" fill="none" xmlns="http://www.w3.org/2000/svg">
<path d="M306.5 151.481C306.5 293.101 175.629 361.601 151.789 407.601C123.629 360.101 8.70248e-06 292.357 0 151.481C-1.25232e-05 -51.2431 306.5 -49.7431 306.5 151.481Z" transform="translate(5 5.2431)" fill="#266299" stroke="#333333" stroke-width="9"/>
<path d="M64.5865 57.5681L0 131.422L73.3963 218C92.5 192.5 73.3963 156.15 103.029 160.206C194.33 172.704 198.335 137.86 209.547 131.422C218.517 126.271 213.285 117.661 209.547 114C196.333 108.193 161.102 86.1957 159.5 76.5C157.898 66.8043 141.803 59.9668 139 57.5681C122.181 55.0432 106.233 54.6897 103.029 43.1761C99.8256 31.6625 81.9391 9.59468 73.3963 0C73.3963 8.96346 71.6344 28.4053 64.5865 34.4651C57.5387 40.5249 61.65 52.392 64.5865 57.5681Z" transform="translate(54 72.9999)" fill="#333333"/>
<path d="M74.8397 56.022C69.1441 63.3672 75.5424 74.1743 79.4535 78.6596L115.257 82.0088C109.819 71.3669 122.023 55.116 102.676 20.2779C104.466 29.0608 80.5354 48.6768 74.8397 56.022Z" transform="translate(54 72.9999)" fill="#333333"/>
<path d="M0 131.422L-0.376378 131.093L-0.659791 131.417L-0.381393 131.745L0 131.422ZM64.5865 57.5681L64.9629 57.8973L65.1966 57.6301L65.0214 57.3214L64.5865 57.5681ZM64.5865 34.4651L64.9125 34.8442L64.9125 34.8442L64.5865 34.4651ZM73.3963 0L73.7697 -0.33249L72.8963 -1.31347V0H73.3963ZM139 57.5681L139.325 57.1882L139.216 57.0949L139.074 57.0736L139 57.5681ZM209.547 114L209.897 113.643L209.832 113.579L209.748 113.542L209.547 114ZM209.547 131.422L209.796 131.856L209.796 131.856L209.547 131.422ZM103.029 160.206L103.097 159.711L103.097 159.711L103.029 160.206ZM73.3963 218L73.0149 218.323L73.4205 218.802L73.7965 218.3L73.3963 218ZM79.4535 78.6596L79.0767 78.9882L79.208 79.1388L79.4069 79.1574L79.4535 78.6596ZM74.8397 56.022L75.2349 56.3284L75.2349 56.3284L74.8397 56.022ZM102.676 20.2779L103.113 20.0352L102.186 20.3778L102.676 20.2779ZM115.257 82.0088L115.21 82.5067L116.116 82.5914L115.702 81.7813L115.257 82.0088ZM0.376378 131.751L64.9629 57.8973L64.2102 57.239L-0.376378 131.093L0.376378 131.751ZM65.0214 57.3214C63.5771 54.7756 61.8432 50.5787 61.339 46.2896C60.8344 41.9974 61.5686 37.7194 64.9125 34.8442L64.2606 34.086C60.5567 37.2707 59.8226 41.9561 60.3458 46.4064C60.8694 50.8599 62.6594 55.1846 64.1517 57.8148L65.0214 57.3214ZM64.9125 34.8442C66.7599 33.2558 68.2289 30.8222 69.3989 27.9739C70.5717 25.1187 71.4605 21.8061 72.125 18.4176C73.454 11.6411 73.8963 4.50668 73.8963 0H72.8963C72.8963 4.45677 72.4577 11.525 71.1437 18.2252C70.4868 21.5751 69.6136 24.8194 68.4739 27.594C67.3313 30.3754 65.9371 32.6445 64.2606 34.086L64.9125 34.8442ZM73.0229 0.33249C77.2856 5.12006 83.8822 13.0229 89.8108 21.1628C95.7555 29.3249 100.973 37.6523 102.547 43.3101L103.511 43.0421C101.882 37.1863 96.5542 28.723 90.6191 20.5741C84.6678 12.403 78.0498 4.47462 73.7697 -0.33249L73.0229 0.33249ZM102.547 43.3101C104.22 49.3217 109.225 52.3644 115.772 54.2238C122.303 56.0786 130.565 56.8074 138.926 58.0626L139.074 57.0736C130.616 55.8039 122.495 55.0935 116.046 53.2619C109.613 51.435 105.042 48.5441 103.511 43.0421L102.547 43.3101ZM138.675 57.948C139.059 58.2766 139.648 58.664 140.359 59.0991C141.076 59.5378 141.947 60.0432 142.908 60.6061C144.835 61.7353 147.144 63.1089 149.413 64.7065C151.683 66.3051 153.897 68.1173 155.638 70.1172C157.381 72.1183 158.627 74.2808 159.007 76.5815L159.993 76.4185C159.573 73.8713 158.206 71.5433 156.392 69.4605C154.578 67.3764 152.293 65.5114 149.988 63.8889C147.683 62.2653 145.342 60.8737 143.413 59.7433C142.446 59.1763 141.587 58.6783 140.881 58.2461C140.169 57.8102 139.642 57.4593 139.325 57.1882L138.675 57.948ZM159.007 76.5815C159.226 77.9097 160.007 79.3905 161.167 80.9547C162.333 82.5277 163.915 84.2275 165.795 85.9971C169.554 89.537 174.543 93.3928 179.883 97.1182C190.559 104.567 202.699 111.537 209.346 114.458L209.748 113.542C203.18 110.656 191.098 103.724 180.455 96.2981C175.135 92.5864 170.19 88.762 166.48 85.2691C164.625 83.5223 163.088 81.8675 161.97 80.359C160.845 78.8417 160.174 77.5142 159.993 76.4185L159.007 76.5815ZM209.197 114.357C211.028 116.15 213.196 119.133 213.822 122.251C214.133 123.799 214.062 125.363 213.401 126.837C212.74 128.311 211.469 129.742 209.298 130.988L209.796 131.856C212.111 130.527 213.549 128.95 214.313 127.246C215.077 125.543 215.146 123.76 214.803 122.054C214.121 118.664 211.804 115.511 209.897 113.643L209.197 114.357ZM209.298 130.988C207.824 131.835 206.491 133.134 205.121 134.689C203.763 136.23 202.295 138.112 200.632 140.07C197.273 144.023 192.911 148.545 186.072 152.482C172.393 160.357 148.695 165.953 103.097 159.711L102.961 160.701C148.665 166.958 172.62 161.38 186.571 153.349C193.547 149.332 197.995 144.717 201.394 140.717C203.109 138.698 204.507 136.899 205.871 135.35C207.223 133.816 208.468 132.618 209.796 131.856L209.298 130.988ZM103.097 159.711C95.5996 158.684 91.0279 160.198 88.1987 163.62C85.4174 166.985 84.4242 172.092 83.7674 177.964C82.4424 189.811 82.4445 205.088 72.9962 217.7L73.7965 218.3C83.4518 205.412 83.4539 189.764 84.7612 178.075C85.4206 172.179 86.4015 167.364 88.9695 164.258C91.4897 161.209 95.6423 159.699 102.961 160.701L103.097 159.711ZM-0.381393 131.745L73.0149 218.323L73.7777 217.677L0.381393 131.099L-0.381393 131.745ZM79.8304 78.331C77.9067 76.1249 75.3696 72.3588 74.019 68.2569C72.6674 64.1519 72.5325 59.8134 75.2349 56.3284L74.4446 55.7156C71.4513 59.5758 71.6677 64.3135 73.0692 68.5696C74.4716 72.8288 77.0892 76.709 79.0767 78.9882L79.8304 78.331ZM75.2349 56.3284C76.635 54.5228 79.1723 51.9445 82.1968 48.9273C85.2097 45.9217 88.6871 42.4987 91.93 39.0306C95.171 35.5647 98.1962 32.0344 100.301 28.8085C101.354 27.1953 102.186 25.6433 102.698 24.2015C103.209 22.7631 103.414 21.3981 103.166 20.1781L102.186 20.3778C102.385 21.3535 102.233 22.5226 101.756 23.8668C101.28 25.2076 100.492 26.6864 99.4637 28.2621C97.4071 31.4139 94.4295 34.8935 91.1996 38.3476C87.9718 41.7995 84.5106 45.2066 81.4906 48.2193C78.4822 51.2205 75.8923 53.8486 74.4446 55.7156L75.2349 56.3284ZM102.239 20.5207C111.868 37.8609 113.635 50.5495 113.682 60.2193C113.694 62.6419 113.598 64.8786 113.488 66.9598C113.379 69.0358 113.256 70.9697 113.218 72.7621C113.14 76.3458 113.394 79.4611 114.812 82.2364L115.702 81.7813C114.401 79.2356 114.141 76.3288 114.217 72.7837C114.256 71.0118 114.377 69.1046 114.487 67.0122C114.597 64.9249 114.694 62.6658 114.682 60.2145C114.635 50.3889 112.83 37.533 103.113 20.0352L102.239 20.5207ZM79.4069 79.1574L115.21 82.5067L115.304 81.511L79.5001 78.1618L79.4069 79.1574Z" transform="translate(54 72.9999)" fill="#333333"/>
</svg>
